<svg xmlns="http://www.w3.org/2000/svg" viewBox="0 0 980 440" role="img" aria-label="Cumulative change since 2000">
<rect width="980" height="440" fill="#fff"/>
<text x="105" y="35" font-family="Arial,sans-serif" font-size="23" font-weight="bold" fill="#142532">Cumulative change since 2000</text>
<text x="105" y="56" font-family="Arial,sans-serif" font-size="13" fill="#64748b">2000 = 0%; based on annual mean sold prices</text>
<line x1="105" x2="938" y1="362.0" y2="362.0" stroke="#e6edf0"/>
<text x="93" y="367.0" text-anchor="end" font-family="Arial" font-size="12" fill="#64748b">-26%</text>
<line x1="105" x2="938" y1="290.2" y2="290.2" stroke="#e6edf0"/>
<text x="93" y="295.2" text-anchor="end" font-family="Arial" font-size="12" fill="#64748b">+62%</text>
<line x1="105" x2="938" y1="218.5" y2="218.5" stroke="#e6edf0"/>
<text x="93" y="223.5" text-anchor="end" font-family="Arial" font-size="12" fill="#64748b">+150%</text>
<line x1="105" x2="938" y1="146.8" y2="146.8" stroke="#e6edf0"/>
<text x="93" y="151.8" text-anchor="end" font-family="Arial" font-size="12" fill="#64748b">+238%</text>
<line x1="105" x2="938" y1="75.0" y2="75.0" stroke="#e6edf0"/>
<text x="93" y="80.0" text-anchor="end" font-family="Arial" font-size="12" fill="#64748b">+326%</text>
<text x="105.0" y="387" text-anchor="middle" font-family="Arial" font-size="13" fill="#64748b">2000</text>
<text x="271.6" y="387" text-anchor="middle" font-family="Arial" font-size="13" fill="#64748b">2005</text>
<text x="438.2" y="387" text-anchor="middle" font-family="Arial" font-size="13" fill="#64748b">2010</text>
<text x="604.8" y="387" text-anchor="middle" font-family="Arial" font-size="13" fill="#64748b">2015</text>
<text x="771.4" y="387" text-anchor="middle" font-family="Arial" font-size="13" fill="#64748b">2020</text>
<text x="938.0" y="387" text-anchor="middle" font-family="Arial" font-size="13" fill="#64748b">2025</text>
<polyline fill="none" stroke="#0b7060" stroke-width="3.5" stroke-linejoin="round" stroke-linecap="round" points="105.0,340.7 138.3,328.1 171.6,319.0 205.0,303.2 238.3,301.4 271.6,289.6 304.9,279.1 338.2,262.2 371.6,270.1 404.9,268.9 438.2,250.4 471.5,252.1 504.8,246.8 538.2,227.1 571.5,199.5 604.8,162.5 638.1,161.4 671.4,142.6 704.8,140.5 738.1,146.6 771.4,144.8 804.7,127.0 838.0,122.4 871.4,109.6 904.7,103.5 938.0,104.7"/>
<circle cx="105.0" cy="340.7" r="4" fill="#0b7060"/>
<circle cx="938.0" cy="104.7" r="4" fill="#0b7060"/>
<polyline fill="none" stroke="#c47b37" stroke-width="3.5" stroke-linejoin="round" stroke-linecap="round" points="105.0,340.7 138.3,328.5 171.6,310.1 205.0,284.5 238.3,268.1 271.6,259.7 304.9,251.6 338.2,244.9 371.6,248.6 404.9,260.7 438.2,247.2 471.5,254.0 504.8,252.8 538.2,246.0 571.5,238.4 604.8,227.5 638.1,219.1 671.4,203.8 704.8,192.1 738.1,188.2 771.4,170.0 804.7,149.8 838.0,137.5 871.4,133.6 904.7,129.7 938.0,121.4"/>
<circle cx="105.0" cy="340.7" r="4" fill="#c47b37"/>
<circle cx="938.0" cy="121.4" r="4" fill="#c47b37"/>
<line x1="105" x2="130" y1="422" y2="422" stroke="#0b7060" stroke-width="4"/>
<text x="139" y="427" font-family="Arial" font-size="14" fill="#142532">Cambridge</text>
<line x1="390" x2="415" y1="422" y2="422" stroke="#c47b37" stroke-width="4"/>
<text x="424" y="427" font-family="Arial" font-size="14" fill="#142532">Birmingham</text>
</svg>