<svg xmlns="http://www.w3.org/2000/svg" width="1200" height="450"><rect width="1200" height="450" x="0" y="0" fill="#FFFFFF" id="background"/><g id="viz"><g transform="translate(0,0)"><g transform="translate(50,20)"><g class="bars"><rect id="undefined - 2023" x="0" y="14.470588235294116" height="117.37254901960785" width="1060.7086153846153" fill="#0b6f5c"/><rect id="undefined - 2024" x="0" y="146.31372549019608" height="117.37254901960785" width="1065.4878461538462" fill="#0b6f5c"/><rect id="undefined - 2025" x="0" y="278.156862745098" height="117.37254901960785" width="1115.946" fill="#0b6f5c"/></g><g id="xAxis" transform="translate(0,410)" fill="none" font-size="10" font-family="sans-serif" text-anchor="middle"><path class="domain" stroke="currentColor" d="M0,6V0H1140V6"/><g class="tick" opacity="1" transform="translate(0,0)"><line stroke="currentColor" y2="6"/><text fill="currentColor" y="9" dy="0.71em">0</text></g><g class="tick" opacity="1" transform="translate(87.6923076923077,0)"><line stroke="currentColor" y2="6"/><text fill="currentColor" y="9" dy="0.71em">20,000</text></g><g class="tick" opacity="1" transform="translate(175.3846153846154,0)"><line stroke="currentColor" y2="6"/><text fill="currentColor" y="9" dy="0.71em">40,000</text></g><g class="tick" opacity="1" transform="translate(263.0769230769231,0)"><line stroke="currentColor" y2="6"/><text fill="currentColor" y="9" dy="0.71em">60,000</text></g><g class="tick" opacity="1" transform="translate(350.7692307692308,0)"><line stroke="currentColor" y2="6"/><text fill="currentColor" y="9" dy="0.71em">80,000</text></g><g class="tick" opacity="1" transform="translate(438.4615384615385,0)"><line stroke="currentColor" y2="6"/><text fill="currentColor" y="9" dy="0.71em">100,000</text></g><g class="tick" opacity="1" transform="translate(526.1538461538462,0)"><line stroke="currentColor" y2="6"/><text fill="currentColor" y="9" dy="0.71em">120,000</text></g><g class="tick" opacity="1" transform="translate(613.8461538461538,0)"><line stroke="currentColor" y2="6"/><text fill="currentColor" y="9" dy="0.71em">140,000</text></g><g class="tick" opacity="1" transform="translate(701.5384615384615,0)"><line stroke="currentColor" y2="6"/><text fill="currentColor" y="9" dy="0.71em">160,000</text></g><g class="tick" opacity="1" transform="translate(789.2307692307692,0)"><line stroke="currentColor" y2="6"/><text fill="currentColor" y="9" dy="0.71em">180,000</text></g><g class="tick" opacity="1" transform="translate(876.923076923077,0)"><line stroke="currentColor" y2="6"/><text fill="currentColor" y="9" dy="0.71em">200,000</text></g><g class="tick" opacity="1" transform="translate(964.6153846153846,0)"><line stroke="currentColor" y2="6"/><text fill="currentColor" y="9" dy="0.71em">220,000</text></g><g class="tick" opacity="1" transform="translate(1052.3076923076924,0)"><line stroke="currentColor" y2="6"/><text fill="currentColor" y="9" dy="0.71em">240,000</text></g><g class="tick" opacity="1" transform="translate(1140,0)"><line stroke="currentColor" y2="6"/><text fill="currentColor" y="9" dy="0.71em">260,000</text></g><text font-family="Arial, sans-serif" font-size="10" x="1140" dy="-5" fill="black" font-weight="bold" text-anchor="end">Average house price [mean]</text></g><g id="yAxis" transform="translate(0,0)" fill="none" font-size="10" font-family="sans-serif" text-anchor="end"><path class="domain" stroke="currentColor" d="M0,0V410"/><g class="tick" opacity="1" transform="translate(0,73.15686274509804)"><line stroke="currentColor" x2="-6"/><text fill="currentColor" x="-9" dy="0.32em">2023</text></g><g class="tick" opacity="1" transform="translate(0,205)"><line stroke="currentColor" x2="-6"/><text fill="currentColor" x="-9" dy="0.32em">2024</text></g><g class="tick" opacity="1" transform="translate(0,336.84313725490193)"><line stroke="currentColor" x2="-6"/><text fill="currentColor" x="-9" dy="0.32em">2025</text></g><text font-family="Arial, sans-serif" font-size="10" x="4" fill="black" font-weight="bold" text-anchor="start" dominant-baseline="hanging">Year</text></g></g><text y="4" x="4" style="font-family: Arial, sans-serif; font-size: 12px; fill: black; font-weight: bold; dominant-baseline: hanging;"/></g></g></svg>