<?xml version="1.0" encoding="utf-8" standalone="no"?>
<!DOCTYPE svg PUBLIC "-//W3C//DTD SVG 1.1//EN"
  "http://www.w3.org/Graphics/SVG/1.1/DTD/svg11.dtd">
<svg xmlns:xlink="http://www.w3.org/1999/xlink" width="864pt" height="475.2pt" viewBox="0 0 864 475.2" xmlns="http://www.w3.org/2000/svg" version="1.1">
 <metadata>
  <rdf:RDF xmlns:dc="http://purl.org/dc/elements/1.1/" xmlns:cc="http://creativecommons.org/ns#" xmlns:rdf="http://www.w3.org/1999/02/22-rdf-syntax-ns#">
   <cc:Work>
    <dc:type rdf:resource="http://purl.org/dc/dcmitype/StillImage"/>
    <dc:date>2026-10-09T19:56:48.109452</dc:date>
    <dc:format>image/svg+xml</dc:format>
    <dc:creator>
     <cc:Agent>
      <dc:title>Matplotlib v3.10.8, https://matplotlib.org/</dc:title>
     </cc:Agent>
    </dc:creator>
   </cc:Work>
  </rdf:RDF>
 </metadata>
 <defs>
  <style type="text/css">*{stroke-linejoin: round; stroke-linecap: butt}</style>
 </defs>
 <g id="figure_1">
  <g id="patch_1">
   <path d="M 0 475.2 
L 864 475.2 
L 864 0 
L 0 0 
z
" style="fill: #ffffff"/>
  </g>
  <g id="axes_1">
   <g id="patch_2">
    <path d="M 90.72 413.424 
L 829.44 413.424 
L 829.44 99.792 
L 90.72 99.792 
z
" style="fill: #ffffff"/>
   </g>
   <g id="matplotlib.axis_1">
    <g id="xtick_1">
     <g id="line2d_1"/>
     <g id="text_1">
      <text style="font-size: 12px; font-family: 'DejaVu Sans'; text-anchor: middle; fill: #173b35" x="124.298182" y="431.542125" transform="rotate(-0 124.298182 431.542125)">2000</text>
     </g>
    </g>
    <g id="xtick_2">
     <g id="line2d_2"/>
     <g id="text_2">
      <text style="font-size: 12px; font-family: 'DejaVu Sans'; text-anchor: middle; fill: #173b35" x="258.610909" y="431.542125" transform="rotate(-0 258.610909 431.542125)">2005</text>
     </g>
    </g>
    <g id="xtick_3">
     <g id="line2d_3"/>
     <g id="text_3">
      <text style="font-size: 12px; font-family: 'DejaVu Sans'; text-anchor: middle; fill: #173b35" x="392.923636" y="431.542125" transform="rotate(-0 392.923636 431.542125)">2010</text>
     </g>
    </g>
    <g id="xtick_4">
     <g id="line2d_4"/>
     <g id="text_4">
      <text style="font-size: 12px; font-family: 'DejaVu Sans'; text-anchor: middle; fill: #173b35" x="527.236364" y="431.542125" transform="rotate(-0 527.236364 431.542125)">2015</text>
     </g>
    </g>
    <g id="xtick_5">
     <g id="line2d_5"/>
     <g id="text_5">
      <text style="font-size: 12px; font-family: 'DejaVu Sans'; text-anchor: middle; fill: #173b35" x="661.549091" y="431.542125" transform="rotate(-0 661.549091 431.542125)">2020</text>
     </g>
    </g>
    <g id="xtick_6">
     <g id="line2d_6"/>
     <g id="text_6">
      <text style="font-size: 12px; font-family: 'DejaVu Sans'; text-anchor: middle; fill: #173b35" x="795.861818" y="431.542125" transform="rotate(-0 795.861818 431.542125)">2025</text>
     </g>
    </g>
   </g>
   <g id="matplotlib.axis_2">
    <g id="ytick_1">
     <g id="line2d_7">
      <path d="M 90.72 397.568044 
L 829.44 397.568044 
" clip-path="url(#p03d25e2657)" style="fill: none; stroke: #b0b0b0; stroke-opacity: 0.16; stroke-width: 0.8; stroke-linecap: square"/>
     </g>
     <g id="line2d_8"/>
     <g id="text_7">
      <text style="font-size: 12px; font-family: 'DejaVu Sans'; text-anchor: end; fill: #173b35" x="81.72" y="402.127106" transform="rotate(-0 81.72 402.127106)">-5%</text>
     </g>
    </g>
    <g id="ytick_2">
     <g id="line2d_9">
      <path d="M 90.72 348.935385 
L 829.44 348.935385 
" clip-path="url(#p03d25e2657)" style="fill: none; stroke: #b0b0b0; stroke-opacity: 0.16; stroke-width: 0.8; stroke-linecap: square"/>
     </g>
     <g id="line2d_10"/>
     <g id="text_8">
      <text style="font-size: 12px; font-family: 'DejaVu Sans'; text-anchor: end; fill: #173b35" x="81.72" y="353.494447" transform="rotate(-0 81.72 353.494447)">0%</text>
     </g>
    </g>
    <g id="ytick_3">
     <g id="line2d_11">
      <path d="M 90.72 300.302726 
L 829.44 300.302726 
" clip-path="url(#p03d25e2657)" style="fill: none; stroke: #b0b0b0; stroke-opacity: 0.16; stroke-width: 0.8; stroke-linecap: square"/>
     </g>
     <g id="line2d_12"/>
     <g id="text_9">
      <text style="font-size: 12px; font-family: 'DejaVu Sans'; text-anchor: end; fill: #173b35" x="81.72" y="304.861788" transform="rotate(-0 81.72 304.861788)">5%</text>
     </g>
    </g>
    <g id="ytick_4">
     <g id="line2d_13">
      <path d="M 90.72 251.670066 
L 829.44 251.670066 
" clip-path="url(#p03d25e2657)" style="fill: none; stroke: #b0b0b0; stroke-opacity: 0.16; stroke-width: 0.8; stroke-linecap: square"/>
     </g>
     <g id="line2d_14"/>
     <g id="text_10">
      <text style="font-size: 12px; font-family: 'DejaVu Sans'; text-anchor: end; fill: #173b35" x="81.72" y="256.229129" transform="rotate(-0 81.72 256.229129)">10%</text>
     </g>
    </g>
    <g id="ytick_5">
     <g id="line2d_15">
      <path d="M 90.72 203.037407 
L 829.44 203.037407 
" clip-path="url(#p03d25e2657)" style="fill: none; stroke: #b0b0b0; stroke-opacity: 0.16; stroke-width: 0.8; stroke-linecap: square"/>
     </g>
     <g id="line2d_16"/>
     <g id="text_11">
      <text style="font-size: 12px; font-family: 'DejaVu Sans'; text-anchor: end; fill: #173b35" x="81.72" y="207.59647" transform="rotate(-0 81.72 207.59647)">15%</text>
     </g>
    </g>
    <g id="ytick_6">
     <g id="line2d_17">
      <path d="M 90.72 154.404748 
L 829.44 154.404748 
" clip-path="url(#p03d25e2657)" style="fill: none; stroke: #b0b0b0; stroke-opacity: 0.16; stroke-width: 0.8; stroke-linecap: square"/>
     </g>
     <g id="line2d_18"/>
     <g id="text_12">
      <text style="font-size: 12px; font-family: 'DejaVu Sans'; text-anchor: end; fill: #173b35" x="81.72" y="158.96381" transform="rotate(-0 81.72 158.96381)">20%</text>
     </g>
    </g>
    <g id="ytick_7">
     <g id="line2d_19">
      <path d="M 90.72 105.772089 
L 829.44 105.772089 
" clip-path="url(#p03d25e2657)" style="fill: none; stroke: #b0b0b0; stroke-opacity: 0.16; stroke-width: 0.8; stroke-linecap: square"/>
     </g>
     <g id="line2d_20"/>
     <g id="text_13">
      <text style="font-size: 12px; font-family: 'DejaVu Sans'; text-anchor: end; fill: #173b35" x="81.72" y="110.331151" transform="rotate(-0 81.72 110.331151)">25%</text>
     </g>
    </g>
   </g>
   <g id="line2d_21">
    <path d="M 124.298182 348.935385 
L 151.160727 262.585616 
L 178.023273 176.548708 
L 204.885818 114.048 
L 231.748364 198.697544 
L 258.610909 274.633456 
L 285.473455 282.029954 
L 312.336 304.693189 
L 339.198545 372.825062 
L 366.061091 392.972793 
L 392.923636 268.612781 
L 419.786182 380.660656 
L 446.648727 331.73822 
L 473.511273 328.852932 
L 500.373818 319.075396 
L 527.236364 297.831752 
L 554.098909 306.085219 
L 580.961455 305.630076 
L 607.824 313.289183 
L 634.686545 317.187142 
L 661.549091 254.183163 
L 688.411636 279.282875 
L 715.274182 295.300608 
L 742.136727 349.197625 
L 768.999273 312.633861 
L 795.861818 320.456053 
" clip-path="url(#p03d25e2657)" style="fill: none; stroke: #0b7060; stroke-width: 3; stroke-linecap: square"/>
   </g>
   <g id="line2d_22">
    <path d="M 124.298182 348.935385 
L 151.160727 220.576347 
L 178.023273 180.600446 
L 204.885818 142.755838 
L 231.748364 137.374075 
L 258.610909 293.424214 
L 285.473455 267.03827 
L 312.336 305.649645 
L 339.198545 399.168 
L 366.061091 323.089519 
L 392.923636 317.863264 
L 419.786182 396.288852 
L 446.648727 306.93042 
L 473.511273 352.187282 
L 500.373818 286.879621 
L 527.236364 321.905922 
L 554.098909 304.731418 
L 580.961455 305.101916 
L 607.824 290.999158 
L 634.686545 333.156821 
L 661.549091 298.344382 
L 688.411636 251.065654 
L 715.274182 281.423075 
L 742.136727 315.920323 
L 768.999273 337.865974 
L 795.861818 330.395063 
" clip-path="url(#p03d25e2657)" style="fill: none; stroke: #173b35; stroke-width: 2.7; stroke-linecap: square"/>
   </g>
   <g id="patch_3">
    <path d="M 90.72 413.424 
L 829.44 413.424 
" style="fill: none; stroke: #000000; stroke-width: 0.8; stroke-linejoin: miter; stroke-linecap: square"/>
   </g>
   <g id="text_14">
    <text style="font-weight: 700; font-size: 19px; font-family: 'DejaVu Sans'; text-anchor: start; fill: #173b35" x="90.72" y="71.792" transform="rotate(-0 90.72 71.792)">Year-on-year average price changes</text>
   </g>
   <g id="legend_1">
    <g id="line2d_23">
     <path d="M 101.52 115.510125 
L 113.52 115.510125 
L 125.52 115.510125 
" style="fill: none; stroke: #0b7060; stroke-width: 3; stroke-linecap: square"/>
    </g>
    <g id="text_15">
     <text style="font-size: 12px; font-family: 'DejaVu Sans'; text-anchor: start" x="135.12" y="119.710125" transform="rotate(-0 135.12 119.710125)">Leeds</text>
    </g>
    <g id="line2d_24">
     <path d="M 194.233125 115.510125 
L 206.233125 115.510125 
L 218.233125 115.510125 
" style="fill: none; stroke: #173b35; stroke-width: 2.7; stroke-linecap: square"/>
    </g>
    <g id="text_16">
     <text style="font-size: 12px; font-family: 'DejaVu Sans'; text-anchor: start" x="227.833125" y="119.710125" transform="rotate(-0 227.833125 119.710125)">Sheffield</text>
    </g>
   </g>
  </g>
  <g id="text_17">
   <text style="font-size: 10px; font-family: 'DejaVu Sans'; text-anchor: start; fill: #73847e" x="90.72" y="35.64" transform="rotate(-0 90.72 35.64)">HM Land Registry Price Paid Data | District boundaries | 2000–2025</text>
  </g>
 </g>
 <defs>
  <clipPath id="p03d25e2657">
   <rect x="90.72" y="99.792" width="738.72" height="313.632"/>
  </clipPath>
 </defs>
</svg>
