<svg xmlns="http://www.w3.org/2000/svg" viewBox="0 0 980 440" role="img" aria-label="Average price gap: Leeds minus Manchester">
<rect width="980" height="440" fill="#fff"/>
<text x="105" y="35" font-family="Arial,sans-serif" font-size="23" font-weight="bold" fill="#142532">Average price gap: Leeds minus Manchester</text>
<text x="105" y="56" font-family="Arial,sans-serif" font-size="13" fill="#64748b">Positive means first city has higher average</text>
<line x1="105" x2="938" y1="362.0" y2="362.0" stroke="#e6edf0"/>
<text x="93" y="367.0" text-anchor="end" font-family="Arial" font-size="12" fill="#64748b">£-11k</text>
<line x1="105" x2="938" y1="290.2" y2="290.2" stroke="#e6edf0"/>
<text x="93" y="295.2" text-anchor="end" font-family="Arial" font-size="12" fill="#64748b">£182</text>
<line x1="105" x2="938" y1="218.5" y2="218.5" stroke="#e6edf0"/>
<text x="93" y="223.5" text-anchor="end" font-family="Arial" font-size="12" fill="#64748b">£11k</text>
<line x1="105" x2="938" y1="146.8" y2="146.8" stroke="#e6edf0"/>
<text x="93" y="151.8" text-anchor="end" font-family="Arial" font-size="12" fill="#64748b">£23k</text>
<line x1="105" x2="938" y1="75.0" y2="75.0" stroke="#e6edf0"/>
<text x="93" y="80.0" text-anchor="end" font-family="Arial" font-size="12" fill="#64748b">£34k</text>
<text x="105.0" y="387" text-anchor="middle" font-family="Arial" font-size="13" fill="#64748b">2000</text>
<text x="271.6" y="387" text-anchor="middle" font-family="Arial" font-size="13" fill="#64748b">2005</text>
<text x="438.2" y="387" text-anchor="middle" font-family="Arial" font-size="13" fill="#64748b">2010</text>
<text x="604.8" y="387" text-anchor="middle" font-family="Arial" font-size="13" fill="#64748b">2015</text>
<text x="771.4" y="387" text-anchor="middle" font-family="Arial" font-size="13" fill="#64748b">2020</text>
<text x="938.0" y="387" text-anchor="middle" font-family="Arial" font-size="13" fill="#64748b">2025</text>
<polyline fill="none" stroke="#0b7060" stroke-width="3.5" stroke-linejoin="round" stroke-linecap="round" points="105.0,197.0 138.3,202.9 171.6,211.4 205.0,122.1 238.3,103.5 271.6,133.5 304.9,176.5 338.2,193.5 371.6,155.9 404.9,182.0 438.2,126.8 471.5,152.7 504.8,149.0 538.2,147.2 571.5,141.5 604.8,140.7 638.1,153.4 671.4,219.1 704.8,245.5 738.1,253.6 771.4,276.7 804.7,316.9 838.0,314.6 871.4,340.7 904.7,308.3 938.0,314.4"/>
<circle cx="105.0" cy="197.0" r="4" fill="#0b7060"/>
<circle cx="938.0" cy="314.4" r="4" fill="#0b7060"/>
<line x1="105" x2="130" y1="422" y2="422" stroke="#0b7060" stroke-width="4"/>
<text x="139" y="427" font-family="Arial" font-size="14" fill="#142532">Leeds − Manchester</text>
</svg>