<?xml version="1.0" encoding="utf-8" standalone="no"?>
<!DOCTYPE svg PUBLIC "-//W3C//DTD SVG 1.1//EN"
  "http://www.w3.org/Graphics/SVG/1.1/DTD/svg11.dtd">
<svg xmlns:xlink="http://www.w3.org/1999/xlink" width="864pt" height="475.2pt" viewBox="0 0 864 475.2" xmlns="http://www.w3.org/2000/svg" version="1.1">
 <metadata>
  <rdf:RDF xmlns:dc="http://purl.org/dc/elements/1.1/" xmlns:cc="http://creativecommons.org/ns#" xmlns:rdf="http://www.w3.org/1999/02/22-rdf-syntax-ns#">
   <cc:Work>
    <dc:type rdf:resource="http://purl.org/dc/dcmitype/StillImage"/>
    <dc:date>2026-10-09T19:56:47.980646</dc:date>
    <dc:format>image/svg+xml</dc:format>
    <dc:creator>
     <cc:Agent>
      <dc:title>Matplotlib v3.10.8, https://matplotlib.org/</dc:title>
     </cc:Agent>
    </dc:creator>
   </cc:Work>
  </rdf:RDF>
 </metadata>
 <defs>
  <style type="text/css">*{stroke-linejoin: round; stroke-linecap: butt}</style>
 </defs>
 <g id="figure_1">
  <g id="patch_1">
   <path d="M 0 475.2 
L 864 475.2 
L 864 0 
L 0 0 
z
" style="fill: #ffffff"/>
  </g>
  <g id="axes_1">
   <g id="patch_2">
    <path d="M 90.72 413.424 
L 829.44 413.424 
L 829.44 99.792 
L 90.72 99.792 
z
" style="fill: #ffffff"/>
   </g>
   <g id="matplotlib.axis_1">
    <g id="xtick_1">
     <g id="line2d_1"/>
     <g id="text_1">
      <text style="font-size: 12px; font-family: 'DejaVu Sans'; text-anchor: middle; fill: #173b35" x="124.298182" y="431.542125" transform="rotate(-0 124.298182 431.542125)">2000</text>
     </g>
    </g>
    <g id="xtick_2">
     <g id="line2d_2"/>
     <g id="text_2">
      <text style="font-size: 12px; font-family: 'DejaVu Sans'; text-anchor: middle; fill: #173b35" x="258.610909" y="431.542125" transform="rotate(-0 258.610909 431.542125)">2005</text>
     </g>
    </g>
    <g id="xtick_3">
     <g id="line2d_3"/>
     <g id="text_3">
      <text style="font-size: 12px; font-family: 'DejaVu Sans'; text-anchor: middle; fill: #173b35" x="392.923636" y="431.542125" transform="rotate(-0 392.923636 431.542125)">2010</text>
     </g>
    </g>
    <g id="xtick_4">
     <g id="line2d_4"/>
     <g id="text_4">
      <text style="font-size: 12px; font-family: 'DejaVu Sans'; text-anchor: middle; fill: #173b35" x="527.236364" y="431.542125" transform="rotate(-0 527.236364 431.542125)">2015</text>
     </g>
    </g>
    <g id="xtick_5">
     <g id="line2d_5"/>
     <g id="text_5">
      <text style="font-size: 12px; font-family: 'DejaVu Sans'; text-anchor: middle; fill: #173b35" x="661.549091" y="431.542125" transform="rotate(-0 661.549091 431.542125)">2020</text>
     </g>
    </g>
    <g id="xtick_6">
     <g id="line2d_6"/>
     <g id="text_6">
      <text style="font-size: 12px; font-family: 'DejaVu Sans'; text-anchor: middle; fill: #173b35" x="795.861818" y="431.542125" transform="rotate(-0 795.861818 431.542125)">2025</text>
     </g>
    </g>
   </g>
   <g id="matplotlib.axis_2">
    <g id="ytick_1">
     <g id="line2d_7">
      <path d="M 90.72 399.168 
L 829.44 399.168 
" clip-path="url(#pafbc803aa0)" style="fill: none; stroke: #b0b0b0; stroke-opacity: 0.16; stroke-width: 0.8; stroke-linecap: square"/>
     </g>
     <g id="line2d_8"/>
     <g id="text_7">
      <text style="font-size: 12px; font-family: 'DejaVu Sans'; text-anchor: end; fill: #173b35" x="81.72" y="403.727062" transform="rotate(-0 81.72 403.727062)">0%</text>
     </g>
    </g>
    <g id="ytick_2">
     <g id="line2d_9">
      <path d="M 90.72 350.259901 
L 829.44 350.259901 
" clip-path="url(#pafbc803aa0)" style="fill: none; stroke: #b0b0b0; stroke-opacity: 0.16; stroke-width: 0.8; stroke-linecap: square"/>
     </g>
     <g id="line2d_10"/>
     <g id="text_8">
      <text style="font-size: 12px; font-family: 'DejaVu Sans'; text-anchor: end; fill: #173b35" x="81.72" y="354.818963" transform="rotate(-0 81.72 354.818963)">50%</text>
     </g>
    </g>
    <g id="ytick_3">
     <g id="line2d_11">
      <path d="M 90.72 301.351802 
L 829.44 301.351802 
" clip-path="url(#pafbc803aa0)" style="fill: none; stroke: #b0b0b0; stroke-opacity: 0.16; stroke-width: 0.8; stroke-linecap: square"/>
     </g>
     <g id="line2d_12"/>
     <g id="text_9">
      <text style="font-size: 12px; font-family: 'DejaVu Sans'; text-anchor: end; fill: #173b35" x="81.72" y="305.910864" transform="rotate(-0 81.72 305.910864)">100%</text>
     </g>
    </g>
    <g id="ytick_4">
     <g id="line2d_13">
      <path d="M 90.72 252.443703 
L 829.44 252.443703 
" clip-path="url(#pafbc803aa0)" style="fill: none; stroke: #b0b0b0; stroke-opacity: 0.16; stroke-width: 0.8; stroke-linecap: square"/>
     </g>
     <g id="line2d_14"/>
     <g id="text_10">
      <text style="font-size: 12px; font-family: 'DejaVu Sans'; text-anchor: end; fill: #173b35" x="81.72" y="257.002765" transform="rotate(-0 81.72 257.002765)">150%</text>
     </g>
    </g>
    <g id="ytick_5">
     <g id="line2d_15">
      <path d="M 90.72 203.535604 
L 829.44 203.535604 
" clip-path="url(#pafbc803aa0)" style="fill: none; stroke: #b0b0b0; stroke-opacity: 0.16; stroke-width: 0.8; stroke-linecap: square"/>
     </g>
     <g id="line2d_16"/>
     <g id="text_11">
      <text style="font-size: 12px; font-family: 'DejaVu Sans'; text-anchor: end; fill: #173b35" x="81.72" y="208.094666" transform="rotate(-0 81.72 208.094666)">200%</text>
     </g>
    </g>
    <g id="ytick_6">
     <g id="line2d_17">
      <path d="M 90.72 154.627505 
L 829.44 154.627505 
" clip-path="url(#pafbc803aa0)" style="fill: none; stroke: #b0b0b0; stroke-opacity: 0.16; stroke-width: 0.8; stroke-linecap: square"/>
     </g>
     <g id="line2d_18"/>
     <g id="text_12">
      <text style="font-size: 12px; font-family: 'DejaVu Sans'; text-anchor: end; fill: #173b35" x="81.72" y="159.186567" transform="rotate(-0 81.72 159.186567)">250%</text>
     </g>
    </g>
    <g id="ytick_7">
     <g id="line2d_19">
      <path d="M 90.72 105.719406 
L 829.44 105.719406 
" clip-path="url(#pafbc803aa0)" style="fill: none; stroke: #b0b0b0; stroke-opacity: 0.16; stroke-width: 0.8; stroke-linecap: square"/>
     </g>
     <g id="line2d_20"/>
     <g id="text_13">
      <text style="font-size: 12px; font-family: 'DejaVu Sans'; text-anchor: end; fill: #173b35" x="81.72" y="110.278468" transform="rotate(-0 81.72 110.278468)">300%</text>
     </g>
    </g>
   </g>
   <g id="line2d_21">
    <path d="M 124.298182 399.168 
L 151.160727 387.90206 
L 178.023273 371.616668 
L 204.885818 351.578863 
L 231.748364 341.134491 
L 258.610909 340.676617 
L 285.473455 330.876743 
L 312.336 319.257154 
L 339.198545 303.48595 
L 366.061091 320.635824 
L 392.923636 297.744216 
L 419.786182 288.771203 
L 446.648727 278.077634 
L 473.511273 274.417281 
L 500.373818 249.798879 
L 527.236364 227.944101 
L 554.098909 215.176697 
L 580.961455 202.648452 
L 607.824 199.474162 
L 634.686545 206.727648 
L 661.549091 172.713076 
L 688.411636 165.103973 
L 715.274182 164.409601 
L 742.136727 140.663083 
L 768.999273 147.464623 
L 795.861818 155.848542 
" clip-path="url(#pafbc803aa0)" style="fill: none; stroke: #0b7060; stroke-width: 3; stroke-linecap: square"/>
   </g>
   <g id="line2d_22">
    <path d="M 124.298182 399.168 
L 151.160727 384.045658 
L 178.023273 373.113338 
L 204.885818 354.115408 
L 231.748364 352.040338 
L 258.610909 337.759797 
L 285.473455 325.156589 
L 312.336 304.821476 
L 339.198545 314.394696 
L 366.061091 312.915045 
L 392.923636 290.635845 
L 419.786182 292.703244 
L 446.648727 286.362738 
L 473.511273 262.636083 
L 500.373818 229.434168 
L 527.236364 185.057345 
L 554.098909 183.650053 
L 580.961455 161.141108 
L 607.824 158.523533 
L 634.686545 165.956181 
L 661.549091 163.710594 
L 688.411636 142.370757 
L 715.274182 136.753916 
L 742.136727 121.405906 
L 768.999273 114.048 
L 795.861818 115.522319 
" clip-path="url(#pafbc803aa0)" style="fill: none; stroke: #173b35; stroke-width: 2.7; stroke-linecap: square"/>
   </g>
   <g id="patch_3">
    <path d="M 90.72 413.424 
L 829.44 413.424 
" style="fill: none; stroke: #000000; stroke-width: 0.8; stroke-linejoin: miter; stroke-linecap: square"/>
   </g>
   <g id="text_14">
    <text style="font-weight: 700; font-size: 19px; font-family: 'DejaVu Sans'; text-anchor: start; fill: #173b35" x="90.72" y="71.792" transform="rotate(-0 90.72 71.792)">Cumulative house price growth</text>
   </g>
   <g id="legend_1">
    <g id="line2d_23">
     <path d="M 101.52 115.510125 
L 113.52 115.510125 
L 125.52 115.510125 
" style="fill: none; stroke: #0b7060; stroke-width: 3; stroke-linecap: square"/>
    </g>
    <g id="text_15">
     <text style="font-size: 12px; font-family: 'DejaVu Sans'; text-anchor: start" x="135.12" y="119.710125" transform="rotate(-0 135.12 119.710125)">Oxford</text>
    </g>
    <g id="line2d_24">
     <path d="M 199.576875 115.510125 
L 211.576875 115.510125 
L 223.576875 115.510125 
" style="fill: none; stroke: #173b35; stroke-width: 2.7; stroke-linecap: square"/>
    </g>
    <g id="text_16">
     <text style="font-size: 12px; font-family: 'DejaVu Sans'; text-anchor: start" x="233.176875" y="119.710125" transform="rotate(-0 233.176875 119.710125)">Cambridge</text>
    </g>
   </g>
  </g>
  <g id="text_17">
   <text style="font-size: 10px; font-family: 'DejaVu Sans'; text-anchor: start; fill: #73847e" x="90.72" y="35.64" transform="rotate(-0 90.72 35.64)">HM Land Registry Price Paid Data | District boundaries | 2000–2025</text>
  </g>
 </g>
 <defs>
  <clipPath id="pafbc803aa0">
   <rect x="90.72" y="99.792" width="738.72" height="313.632"/>
  </clipPath>
 </defs>
</svg>
