<svg xmlns="http://www.w3.org/2000/svg" viewBox="0 0 980 440" role="img" aria-label="Average price gap: Sheffield minus Leicester">
<rect width="980" height="440" fill="#fff"/>
<text x="105" y="35" font-family="Arial,sans-serif" font-size="23" font-weight="bold" fill="#142532">Average price gap: Sheffield minus Leicester</text>
<text x="105" y="56" font-family="Arial,sans-serif" font-size="13" fill="#64748b">Positive means first city has higher average</text>
<line x1="105" x2="938" y1="362.0" y2="362.0" stroke="#e6edf0"/>
<text x="93" y="367.0" text-anchor="end" font-family="Arial" font-size="12" fill="#64748b">£-6k</text>
<line x1="105" x2="938" y1="290.2" y2="290.2" stroke="#e6edf0"/>
<text x="93" y="295.2" text-anchor="end" font-family="Arial" font-size="12" fill="#64748b">£515</text>
<line x1="105" x2="938" y1="218.5" y2="218.5" stroke="#e6edf0"/>
<text x="93" y="223.5" text-anchor="end" font-family="Arial" font-size="12" fill="#64748b">£7k</text>
<line x1="105" x2="938" y1="146.8" y2="146.8" stroke="#e6edf0"/>
<text x="93" y="151.8" text-anchor="end" font-family="Arial" font-size="12" fill="#64748b">£14k</text>
<line x1="105" x2="938" y1="75.0" y2="75.0" stroke="#e6edf0"/>
<text x="93" y="80.0" text-anchor="end" font-family="Arial" font-size="12" fill="#64748b">£21k</text>
<text x="105.0" y="387" text-anchor="middle" font-family="Arial" font-size="13" fill="#64748b">2000</text>
<text x="271.6" y="387" text-anchor="middle" font-family="Arial" font-size="13" fill="#64748b">2005</text>
<text x="438.2" y="387" text-anchor="middle" font-family="Arial" font-size="13" fill="#64748b">2010</text>
<text x="604.8" y="387" text-anchor="middle" font-family="Arial" font-size="13" fill="#64748b">2015</text>
<text x="771.4" y="387" text-anchor="middle" font-family="Arial" font-size="13" fill="#64748b">2020</text>
<text x="938.0" y="387" text-anchor="middle" font-family="Arial" font-size="13" fill="#64748b">2025</text>
<polyline fill="none" stroke="#0b7060" stroke-width="3.5" stroke-linejoin="round" stroke-linecap="round" points="105.0,203.3 138.3,192.2 171.6,254.1 205.0,282.7 238.3,268.7 271.6,244.2 304.9,162.1 338.2,183.8 371.6,261.8 404.9,142.0 438.2,104.0 471.5,192.4 504.8,106.0 538.2,130.8 571.5,103.5 604.8,141.3 638.1,177.5 671.4,213.0 704.8,263.8 738.1,271.0 771.4,325.8 804.7,340.7 838.0,295.0 871.4,244.1 904.7,257.1 938.0,220.7"/>
<circle cx="105.0" cy="203.3" r="4" fill="#0b7060"/>
<circle cx="938.0" cy="220.7" r="4" fill="#0b7060"/>
<line x1="105" x2="130" y1="422" y2="422" stroke="#0b7060" stroke-width="4"/>
<text x="139" y="427" font-family="Arial" font-size="14" fill="#142532">Sheffield − Leicester</text>
</svg>